# File created by Blade
# Date/Time:  Fri Jan 16 17:45:47 2015
#---------------------------------------------------------
:version 1.10
:name HOM
:units
  mass 1.0
  length 1.000000
  angle deg
:documentation
     Acclaim Skeleton File
:root
   axis xyz
   order TX TY TZ RX RY RZ
   position 0.000000 0.000000 0.000000
   orientation 0 0 0
:bonedata
   begin
      id 1
      name Spine_dum
      direction 0.000000 1.000000 0.000000
      length 7.170412
      axis 0.0 0.0 0.0 xyz
   end
   begin
      id 2
      name LeftUpLeg_dum
      direction 1.000000 0.000000 0.000000
      length 4.318350
      axis 0.0 0.0 0.0 xyz
   end
   begin
      id 3
      name RightUpLeg_dum
      direction -1.000000 0.000000 0.000000
      length 4.318350
      axis 0.0 0.0 0.0 xyz
   end
   begin
      id 4
      name Spine
      direction 0.000000 1.000000 0.000000
      length 0.000000
      axis 0.0 0.0 0.0 xyz
      dof rx ry rz
   end
   begin
      id 5
      name Spine_dum1
      direction 0.000000 1.000000 0.000000
      length 14.276153
      axis 0.0 0.0 0.0 xyz
   end
   begin
      id 6
      name Spine_dum2
      direction 0.000000 1.000000 0.000000
      length 10.718243
      axis 0.0 0.0 0.0 xyz
   end
   begin
      id 7
      name Spine_dum3
      direction 0.000000 1.000000 0.000000
      length 10.718243
      axis 0.0 0.0 0.0 xyz
   end
   begin
      id 8
      name Head
      direction 0.000000 1.000000 0.000000
      length 4.527550
      axis 0.0 0.0 0.0 xyz
      dof rx ry rz
   end
   begin
      id 9
      name LeftShoulder
      direction 1.000000 0.000000 0.000000
      length 7.058872
      axis 0.0 0.0 -90.0 xyz
      dof rx ry rz
   end
   begin
      id 10
      name LeftArm
      direction 1.000000 0.000000 0.000000
      length 10.955525
      axis 0.0 0.0 -90.0 xyz
      dof rx ry rz
   end
   begin
      id 11
      name LeftForeArm
      direction 1.000000 0.000000 0.000000
      length 8.193716
      axis 0.0 0.0 -90.0 xyz
      dof ry rz rx
   end
   begin
      id 12
      name LeftHand
      direction 0.000000 0.000000 0.000000
      length 0.000000
      axis 0.0 0.0 -90.0 xyz
      dof rx ry rz
   end
   begin
      id 13
      name LeftHand_dum1
      direction 0.000000 0.000000 0.000000
      length 0.000000
      axis 0.0 0.0 -90.0 xyz
   end
   begin
      id 14
      name LeftHand_dum2
      direction 1.000000 0.000000 0.000000
      length 3.937000
      axis 0.0 0.0 -90.0 xyz
   end
   begin
      id 15
      name LeftHandThumb1
      direction 0.000000 0.000000 1.000000
      length 3.937000
      axis 0.0 0.0 -90.0 xyz
      dof rx rz ry
   end
   begin
      id 16
      name RightShoulder
      direction -1.000000 0.000000 0.000000
      length 7.058872
      axis 0.0 0.0 90.0 xyz
      dof rx ry rz
   end
   begin
      id 17
      name RightArm
      direction -1.000000 0.000000 0.000000
      length 10.955525
      axis 0.0 0.0 90.0 xyz
      dof rx ry rz
   end
   begin
      id 18
      name RightForeArm
      direction -1.000000 0.000000 0.000000
      length 8.193716
      axis 0.0 0.0 90.0 xyz
      dof ry rz rx
   end
   begin
      id 19
      name RightHand
      direction 0.000000 0.000000 0.000000
      length 0.000000
      axis 0.0 0.0 90.0 xyz
      dof rx ry rz
   end
   begin
      id 20
      name RightHand_dum1
      direction 0.000000 0.000000 0.000000
      length 0.000000
      axis 0.0 0.0 90.0 xyz
   end
   begin
      id 21
      name RightHand_dum2
      direction -1.000000 0.000000 0.000000
      length 3.937000
      axis 0.0 0.0 90.0 xyz
   end
   begin
      id 22
      name RightHandThumb1
      direction 0.000000 0.000000 1.000000
      length 3.937000
      axis 0.0 0.0 90.0 xyz
      dof rx rz ry
   end
   begin
      id 23
      name LeftUpLeg
      direction 0.000000 -1.000000 0.000000
      length 17.323638
      axis 0.0 0.0 0.0 xyz
      dof rx ry rz
   end
   begin
      id 24
      name LeftLeg
      direction 0.000000 -1.000000 0.000000
      length 16.270368
      axis 0.0 0.0 0.0 xyz
      dof rx ry rz
   end
   begin
      id 25
      name LeftFoot
      direction 0.000000 -0.258819 0.965926
      length 4.922846
      axis 15.0 0.0 0.0 xyz
      dof rx ry rz
   end
   begin
      id 26
      name LeftToeBase
      direction 0.000000 0.000000 1.000000
      length 2.952750
      axis 0.0 0.0 0.0 xyz
      dof rx ry rz
   end
   begin
      id 27
      name RightUpLeg
      direction 0.000000 -1.000000 0.000000
      length 17.323638
      axis 0.0 0.0 0.0 xyz
      dof rx ry rz
   end
   begin
      id 28
      name RightLeg
      direction 0.000000 -1.000000 0.000000
      length 16.270368
      axis 0.0 0.0 0.0 xyz
      dof rx ry rz
   end
   begin
      id 29
      name RightFoot
      direction 0.000000 -0.258819 0.965926
      length 4.922846
      axis 15.0 0.0 0.0 xyz
      dof rx ry rz
   end
   begin
      id 30
      name RightToeBase
      direction 0.000000 0.000000 1.000000
      length 2.952750
      axis 0.0 0.0 0.0 xyz
      dof rx ry rz
   end
:hierarchy
   begin
      root Spine_dum LeftUpLeg_dum RightUpLeg_dum
      Spine_dum Spine
      LeftUpLeg_dum LeftUpLeg
      RightUpLeg_dum RightUpLeg
      Spine Spine_dum1 Spine_dum2 Spine_dum3
      Spine_dum1 Head
      Spine_dum2 LeftShoulder
      Spine_dum3 RightShoulder
      LeftShoulder LeftArm
      LeftArm LeftForeArm
      LeftForeArm LeftHand
      LeftHand LeftHand_dum1 LeftHand_dum2
      LeftHand_dum1 LeftHandThumb1
      RightShoulder RightArm
      RightArm RightForeArm
      RightForeArm RightHand
      RightHand RightHand_dum1 RightHand_dum2
      RightHand_dum1 RightHandThumb1
      LeftUpLeg LeftLeg
      LeftLeg LeftFoot
      LeftFoot LeftToeBase
      RightUpLeg RightLeg
      RightLeg RightFoot
      RightFoot RightToeBase
   end

# File created by Blade
# Date/Time:  Fri Jan 16 17:45:28 2015
# Frame Rate: 120.000 fps
#------------------------------------------------------
:FULLY-SPECIFIED
:DEGREES
1250
root -5.425261 35.287764 -10.503279 -3.650573 -7.092609 -5.744024
Spine 2.096369 2.006748 10.569765
Head 4.863986 3.323956 -9.484633
LeftShoulder -19.066961 14.448206 -17.869212
LeftArm 20.524505 1.564537 -73.818974
LeftForeArm 4.502168 -0.000000 12.062076
LeftHand 1.905808 -0.000000 -6.097747
LeftHandThumb1 -26.253704 0.000000 33.147579
RightShoulder 2.524396 -1.232559 4.794567
RightArm 9.447474 -15.819805 65.981523
RightForeArm 2.392217 -0.000000 25.539682
RightHand 8.978924 -0.000000 3.759532
RightHandThumb1 -24.326973 -0.000000 -32.862282
LeftUpLeg 12.876262 16.410222 7.761951
LeftLeg -8.346887 -0.000000 0.000000
LeftFoot -15.199670 26.866080 -8.556719
LeftToeBase 22.788268 -0.000000 -0.000000
RightUpLeg 9.169645 -4.103500 3.926339
RightLeg -4.530704 -0.000000 0.000000
RightFoot -3.159253 -26.381780 3.024675
RightToeBase 13.592602 -0.000000 -0.000000
1251
root -5.424011 35.287596 -10.502439 -3.643134 -7.094583 -5.744068
Spine 2.086982 1.977527 10.594742
Head 4.874438 3.363634 -9.513036
LeftShoulder -19.067894 14.432169 -17.876414
LeftArm 20.521409 1.594318 -73.813855
LeftForeArm 4.423504 -0.000000 12.031166
LeftHand 1.950710 -0.000000 -6.067513
LeftHandThumb1 -26.253704 0.000000 33.147579
RightShoulder 2.556940 -1.102782 4.703606
RightArm 9.179775 -15.034651 66.297270
RightForeArm 2.434559 -0.000000 24.187918
RightHand 8.697889 -0.000000 3.803286
RightHandThumb1 -24.326973 -0.000000 -32.862282
LeftUpLeg 12.870895 16.397636 7.755291
LeftLeg -8.348023 -0.000000 0.000000
LeftFoot -15.204503 26.873122 -8.567269
LeftToeBase 22.818832 -0.000000 -0.000000
RightUpLeg 9.158553 -4.112465 3.924324
RightLeg -4.521648 -0.000000 0.000000
RightFoot -3.171203 -26.380328 3.011391
RightToeBase 13.611143 -0.000000 -0.000000
1252
root -5.423748 35.287709 -10.501685 -3.639654 -7.102117 -5.745375
Spine 2.081496 1.962711 10.582000
Head 4.887357 3.397904 -9.436275
LeftShoulder -19.073988 14.452235 -17.864537
LeftArm 20.545224 1.578637 -73.834288
LeftForeArm 4.527915 0.000000 12.037621
LeftHand 1.932928 0.000000 -6.044154
LeftHandThumb1 -26.253704 0.000000 33.147579
RightShoulder 2.503750 -1.148725 4.754640
RightArm 9.124316 -15.538285 66.067853
RightForeArm 3.642642 0.000000 23.119694
RightHand 8.223859 -0.000000 2.684344
RightHandThumb1 -24.326973 -0.000000 -32.862282
LeftUpLeg 12.871532 16.398678 7.755295
LeftLeg -8.350967 -0.000000 0.000000
LeftFoot -15.200862 26.881303 -8.559536
LeftToeBase 22.815717 -0.000000 -0.000000
RightUpLeg 9.155321 -4.102957 3.925987
RightLeg -4.521271 -0.000000 0.000000
RightFoot -3.172686 -26.379935 3.023606
RightToeBase 13.588641 -0.000000 -0.000000
1253
root -5.422474 35.287779 -10.499952 -3.634795 -7.119191 -5.747445
Spine 2.071484 1.951993 10.572896
Head 4.908085 3.413228 -9.363940
LeftShoulder -19.095226 14.446366 -17.850491
LeftArm 20.555949 1.605410 -73.848137
LeftForeArm 4.551624 -0.000000 12.017485
LeftHand 1.920973 0.000000 -5.997649
LeftHandThumb1 -26.253704 0.000000 33.147579
RightShoulder 2.450421 -1.209487 4.797669
RightArm 9.073205 -16.125983 65.829031
RightForeArm 4.909833 -0.000000 22.095107
RightHand 7.852453 0.000000 1.581655
RightHandThumb1 -24.326973 -0.000000 -32.862282
LeftUpLeg 12.880535 16.412379 7.756070
LeftLeg -8.362916 -0.000000 0.000000
LeftFoot -15.192643 26.882031 -8.566693
LeftToeBase 22.760262 -0.000000 -0.000000
RightUpLeg 9.150512 -4.088961 3.924986
RightLeg -4.516425 -0.000000 0.000000
RightFoot -3.172713 -26.368267 3.040907
RightToeBase 13.568801 -0.000000 -0.000000
1254
root -5.421705 35.287385 -10.498936 -3.633713 -7.125304 -5.741530
Spine 2.074010 1.945148 10.581173
Head 4.907324 3.404875 -9.378206
LeftShoulder -19.089951 14.455324 -17.860590
LeftArm 20.578416 1.629277 -73.833375
LeftForeArm 4.528877 -0.000000 12.005734
LeftHand 1.905046 -0.000000 -5.965386
LeftHandThumb1 -26.253704 0.000000 33.147579
RightShoulder 2.470203 -1.113072 4.731276
RightArm 8.786426 -15.700589 66.010943
RightForeArm 5.024092 -0.000000 20.997198
RightHand 7.497188 -0.000000 1.526604
RightHandThumb1 -24.326973 -0.000000 -32.862282
LeftUpLeg 12.880911 16.418598 7.749744
LeftLeg -8.361231 -0.000000 0.000000
LeftFoot -15.199272 26.884083 -8.570582
LeftToeBase 22.784661 -0.000000 -0.000000
RightUpLeg 9.150450 -4.077797 3.919765
RightLeg -4.517690 -0.000000 0.000000
RightFoot -3.180874 -26.377631 3.031515
RightToeBase 13.606301 -0.000000 -0.000000
1255
root -5.420927 35.287338 -10.497294 -3.629040 -7.141296 -5.738994
Spine 2.066850 1.939712 10.598552
Head 4.920659 3.419993 -9.389330
LeftShoulder -19.082785 14.468087 -17.876624
LeftArm 20.590706 1.620676 -73.831005
LeftForeArm 4.501279 0.000000 11.990061
LeftHand 1.922050 -0.000000 -5.947468
LeftHandThumb1 -26.253704 0.000000 33.147579
RightShoulder 2.544883 -1.040430 4.695660
RightArm 8.440606 -14.928376 66.227207
RightForeArm 4.839876 0.000000 19.981427
RightHand 7.301486 -0.000000 1.795128
RightHandThumb1 -24.326973 -0.000000 -32.862282
LeftUpLeg 12.880194 16.426329 7.746018
LeftLeg -8.355806 -0.000000 0.000000
LeftFoot -15.210598 26.887209 -8.590820
LeftToeBase 22.762160 -0.000000 -0.000000
RightUpLeg 9.145248 -4.054625 3.915679
RightLeg -4.510370 -0.000000 0.000000
RightFoot -3.185960 -26.371422 3.025838
RightToeBase 13.635180 -0.000000 -0.000000
1256
root -5.421425 35.287185 -10.496274 -3.628848 -7.143448 -5.742433
Spine 2.072227 1.916075 10.614436
Head 4.911373 3.425442 -9.394493
LeftShoulder -19.074863 14.461582 -17.881111
LeftArm 20.586741 1.617601 -73.828867
LeftForeArm 4.538989 -0.000000 11.984570
LeftHand 1.928787 0.000000 -5.923319
LeftHandThumb1 -26.253704 0.000000 33.147579
RightShoulder 2.578948 -0.962700 4.608395
RightArm 8.146539 -14.733160 66.352096
RightForeArm 4.939222 -0.000000 19.057018
RightHand 6.951617 -0.000000 1.775411
RightHandThumb1 -24.326973 -0.000000 -32.862282
LeftUpLeg 12.881908 16.413727 7.748870
LeftLeg -8.353599 -0.000000 0.000000
LeftFoot -15.219761 26.898072 -8.589327
LeftToeBase 22.772616 -0.000000 -0.000000
RightUpLeg 9.143233 -4.070445 3.920687
RightLeg -4.505396 -0.000000 0.000000
RightFoot -3.197491 -26.374226 3.054524
RightToeBase 13.591493 -0.000000 -0.000000
1257
root -5.422010 35.287024 -10.494982 -3.626605 -7.153827 -5.737442
Spine 2.076219 1.904103 10.648702
Head 4.896780 3.438426 -9.475842
LeftShoulder -19.059003 14.451654 -17.905757
LeftArm 20.575251 1.677921 -73.779454
LeftForeArm 4.452250 -0.000000 11.984228
LeftHand 1.937690 -0.000000 -5.932749
LeftHandThumb1 -26.253704 0.000000 33.147579
RightShoulder 2.694477 -0.807411 4.467545
RightArm 7.660430 -13.272446 66.823130
RightForeArm 3.773839 -0.000000 18.125332
RightHand 6.750317 -0.000000 2.679653
RightHandThumb1 -24.326973 -0.000000 -32.862282
LeftUpLeg 12.886499 16.456459 7.751337
LeftLeg -8.355446 -0.000000 0.000000
LeftFoot -15.220635 26.861703 -8.598236
LeftToeBase 22.777155 -0.000000 -0.000000
RightUpLeg 9.141417 -4.056959 3.918082
RightLeg -4.503667 -0.000000 0.000000
RightFoot -3.194297 -26.382252 3.027907
RightToeBase 13.590585 -0.000000 -0.000000
1258
root -5.424552 35.286824 -10.495218 -3.620076 -7.156727 -5.739412
Spine 2.078896 1.886657 10.682556
Head 4.880906 3.432220 -9.551390
LeftShoulder -19.049138 14.449746 -17.930786
LeftArm 20.581838 1.695176 -73.746664
LeftForeArm 4.420970 -0.000000 11.974929
LeftHand 1.976024 -0.000000 -5.946416
LeftHandThumb1 -26.253704 0.000000 33.147579
RightShoulder 2.780091 -0.727095 4.338816
RightArm 7.305859 -11.798621 67.227754
RightForeArm 2.542751 -0.000000 17.195195
RightHand 6.544848 0.000000 3.610560
RightHandThumb1 -24.326973 -0.000000 -32.862282
LeftUpLeg 12.872204 16.451558 7.756138
LeftLeg -8.336114 -0.000000 0.000000
LeftFoot -15.226231 26.863107 -8.587891
LeftToeBase 22.783099 -0.000000 -0.000000
RightUpLeg 9.133004 -4.038342 3.929846
RightLeg -4.500448 -0.000000 0.000000
RightFoot -3.200973 -26.404690 3.016598
RightToeBase 13.630101 -0.000000 -0.000000
1259
root -5.425068 35.286645 -10.493281 -3.626901 -7.166968 -5.745083
Spine 2.095942 1.879287 10.714334
Head 4.864089 3.422679 -9.581268
LeftShoulder -19.041099 14.467277 -17.954533
LeftArm 20.604674 1.692302 -73.739177
LeftForeArm 4.416476 -0.000000 11.966505
LeftHand 2.008286 0.000000 -5.907269
LeftHandThumb1 -26.253704 0.000000 33.147579
RightShoulder 2.799010 -0.769089 4.260999
RightArm 7.087098 -11.314736 67.330311
RightForeArm 2.102455 -0.000000 16.469467
RightHand 6.377343 -0.000000 3.895947
RightHandThumb1 -24.326973 -0.000000 -32.862282
LeftUpLeg 12.883561 16.456910 7.766593
LeftLeg -8.329680 -0.000000 0.000000
LeftFoot -15.236223 26.865435 -8.574740
LeftToeBase 22.799982 -0.000000 -0.000000
RightUpLeg 9.139591 -4.026019 3.936045
RightLeg -4.491928 -0.000000 0.000000
RightFoot -3.212548 -26.405978 3.031564
RightToeBase 13.625980 -0.000000 -0.000000
1260
root -5.428263 35.287121 -10.484015 -3.671964 -7.122395 -5.756008
Spine 2.133046 1.806200 10.728244
Head 4.846934 3.423263 -9.568513
LeftShoulder -19.061400 14.478703 -17.962465
LeftArm 20.624722 1.696003 -73.735023
LeftForeArm 4.421257 -0.000000 11.964756
LeftHand 2.024975 -0.000000 -5.911912
LeftHandThumb1 -26.253704 0.000000 33.147579
RightShoulder 2.792739 -0.788657 4.240402
RightArm 6.843255 -11.571158 67.221971
RightForeArm 2.308275 -0.000000 15.918291
RightHand 6.061695 -0.000000 4.054685
RightHandThumb1 -24.326973 -0.000000 -32.862282
LeftUpLeg 12.939587 16.421668 7.798495
LeftLeg -8.332874 -0.000000 0.000000
LeftFoot -15.245356 26.833113 -8.599633
LeftToeBase 22.779831 -0.000000 -0.000000
RightUpLeg 9.225014 -4.093858 3.939382
RightLeg -4.533127 -0.000000 0.000000
RightFoot -3.196305 -26.381482 3.032237
RightToeBase 13.625058 -0.000000 -0.000000
